<svg width="119" height="58" viewBox="0 0 119 58" fill="none" xmlns="http://www.w3.org/2000/svg">
<path d="M10.7523 55.9674H6.59104V47.928H5.05127V57.3264H10.7523V55.9674ZM13.572 47.928V57.3264H15.1117V47.928H13.572ZM24.8114 49.2872V47.928H18.9302V57.3264H20.47V53.3212H23.8961V52.0056H20.47V49.2872H24.8114ZM33.998 49.2872V47.928H27.7423V57.3264H34.0119V55.9674H29.2821V53.249H32.9995V51.9476H29.2821V49.2872H33.998ZM46.6893 57.5C48.5759 57.5 49.9906 56.4734 49.9906 54.7817C49.9906 52.685 48.1597 52.2369 46.6337 51.6873C45.7737 51.3693 45.0386 51.0801 45.0386 50.2849C45.0386 49.5765 45.7046 49.0991 46.6476 49.0991C47.6325 49.0991 48.3676 49.6197 48.8531 50.2127H48.964L49.7826 49.3162V49.1861C49.1583 48.3618 48.0348 47.7546 46.6199 47.7546C44.7475 47.7546 43.4712 48.8534 43.4712 50.386C43.4712 52.0343 44.8446 52.656 45.9125 53.0465C47.2441 53.5525 48.4094 53.6826 48.4094 54.8106C48.4094 55.5625 47.7295 56.1117 46.5923 56.1117C45.6767 56.1117 44.6226 55.548 43.9707 54.6805H43.8458L43.0136 55.5769V55.7071C43.818 56.8348 45.2051 57.5 46.6893 57.5ZM57.3185 57.5C58.9138 57.5 60.2315 56.7624 61.0776 55.6491V55.519L60.1066 54.7092H59.9957C59.3854 55.5335 58.4282 56.054 57.3462 56.054C55.5292 56.054 54.1146 54.6225 54.1146 52.6273C54.1146 50.6318 55.5292 49.2006 57.3462 49.2006C58.4282 49.2006 59.3854 49.7209 59.9957 50.5451H60.1066L61.0776 49.7354V49.6052C60.2176 48.4775 58.8861 47.7546 57.3324 47.7546C54.6553 47.7546 52.5609 49.8368 52.5609 52.6273C52.5609 55.4179 54.6553 57.5 57.3185 57.5ZM64.0778 47.928V57.3264H65.6176V47.928H64.0778ZM75.6917 49.2872V47.928H69.436V57.3264H75.7056V55.9674H70.9758V53.249H74.6932V51.9476H70.9758V49.2872H75.6917ZM85.0726 47.928V54.5214L79.8154 47.928H78.9555V57.3264H80.4674V50.8199L85.7244 57.4275H86.5844V47.928H85.0726ZM94.5781 57.5C96.1735 57.5 97.4912 56.7624 98.3373 55.6491V55.519L97.3664 54.7092H97.2555C96.6451 55.5335 95.6878 56.054 94.606 56.054C92.7889 56.054 91.3743 54.6225 91.3743 52.6273C91.3743 50.6318 92.7889 49.2006 94.606 49.2006C95.6878 49.2006 96.6451 49.7209 97.2555 50.5451H97.3664L98.3373 49.7354V49.6052C97.4773 48.4775 96.1458 47.7546 94.5921 47.7546C91.9151 47.7546 89.8206 49.8368 89.8206 52.6273C89.8206 55.4179 91.9151 57.5 94.5781 57.5ZM107.593 49.2872V47.928H101.337V57.3264H107.607V55.9674H102.877V53.249H106.595V51.9476H102.877V49.2872H107.593ZM113.742 57.5C115.629 57.5 117.043 56.4734 117.043 54.7817C117.043 52.685 115.212 52.2369 113.687 51.6873C112.827 51.3693 112.091 51.0801 112.091 50.2849C112.091 49.5765 112.757 49.0991 113.7 49.0991C114.685 49.0991 115.42 49.6197 115.906 50.2127H116.017L116.835 49.3162V49.1861C116.211 48.3618 115.088 47.7546 113.673 47.7546C111.8 47.7546 110.524 48.8534 110.524 50.386C110.524 52.0343 111.897 52.656 112.965 53.0465C114.297 53.5525 115.462 53.6826 115.462 54.8106C115.462 55.5625 114.782 56.1117 113.645 56.1117C112.729 56.1117 111.675 55.548 111.023 54.6805H110.899L110.066 55.5769V55.7071C110.871 56.8348 112.258 57.5 113.742 57.5Z" fill="white"/>
<path fill-rule="evenodd" clip-rule="evenodd" d="M100.059 20.1534L106.28 20.1314C108.008 20.1314 109.411 19.6385 110.386 18.7969C111.376 17.9421 111.927 16.722 111.927 15.2925V15.2118C111.927 13.653 111.403 12.4611 110.467 11.6539C109.486 10.8068 108.047 10.373 106.28 10.373L100.059 10.3948V10.3857H94.9077V5.48349L106.667 5.46182C109.852 5.46182 112.458 6.4089 114.275 8.07503C116.114 9.76115 117.142 12.1786 117.142 15.091V15.1717C117.142 18.2589 116.003 20.6436 114.149 22.2929C113.28 23.0668 112.253 23.6771 111.113 24.1213L118.45 34.1094H112.357L105.721 25.0038L100.059 25.0243V20.1534ZM10.3085 20.1534H15.6322C17.3599 20.1534 18.7629 19.6602 19.7378 18.8189C20.7286 17.9638 21.2796 16.7437 21.2796 15.3143V15.2338C21.2796 13.6747 20.7546 12.4828 19.8195 11.6756C18.8378 10.8288 17.3988 10.3948 15.6322 10.3948H10.3085V10.3857H5.15723V5.48349H16.0189C19.2044 5.48349 21.8105 6.43089 23.6274 8.09675C25.4663 9.78315 26.4936 12.2004 26.4936 15.113V15.1935C26.4936 18.2808 25.3551 20.6656 23.5014 22.3146C21.4869 24.1074 18.6296 25.0243 15.4776 25.0243H10.3085V20.1534ZM10.1035 34.0923H5.15723V25.0379H10.2941V34.0923H10.1035ZM54.3416 21.9612V29.3019H62.0381C63.6438 29.3019 64.9245 28.9728 65.791 28.3304C66.6153 27.7198 67.067 26.8153 67.067 25.6316V25.551C67.067 24.4111 66.6249 23.5079 65.7274 22.8973C64.8357 22.2903 63.4947 21.9612 61.6901 21.9612H54.3416ZM49.2821 10.4061V5.48349H61.6129C63.1703 5.48349 64.5656 5.70623 65.7696 6.13136C66.9962 6.56444 68.0242 7.20809 68.8229 8.04038C69.4391 8.68383 69.9075 9.40071 70.2217 10.202C70.5361 11.0027 70.6958 11.8842 70.6958 12.856V12.9366C70.6958 14.6758 70.2173 16.0141 69.4793 17.0589C68.8351 17.9713 67.9942 18.6559 67.1039 19.1857C68.542 19.7427 69.7663 20.4773 70.6558 21.5039C71.6342 22.6334 72.2038 24.1073 72.2038 26.0748V26.1553C72.2038 28.6926 71.2185 30.6547 69.4823 31.9959C67.6951 33.3772 65.1139 34.0923 61.9993 34.0923H49.2821V21.9137H54.3902V17.3723H60.6462C62.1795 17.3723 63.4473 17.0539 64.3102 16.4064C65.1054 15.81 65.5589 14.9248 65.5589 13.7425V13.662C65.5589 12.6099 65.1526 11.7613 64.3822 11.1802C63.6081 10.5966 62.4654 10.4061 60.9942 10.4061H49.2821ZM99.8537 34.0923H94.9077V25.0379H100.045V34.0923H99.8537Z" fill="white"/>
<path fill-rule="evenodd" clip-rule="evenodd" d="M94.8987 10.3818H89.7495V15.7495H94.8987V10.3818Z" fill="#D3A352"/>
<path fill-rule="evenodd" clip-rule="evenodd" d="M49.2292 10.3818H44.0796V15.7495H49.2292V10.3818Z" fill="#51BC4A"/>
<path fill-rule="evenodd" clip-rule="evenodd" d="M5.14923 10.3818H0V15.7495H5.14923V10.3818Z" fill="#0794D4"/>
<path d="M81.545 2.28882e-05V39.5547H80.8771V2.28882e-05H81.545ZM35.8349 2.28882e-05V39.5547H35.167V2.28882e-05H35.8349Z" fill="white"/>
</svg>
